# xmcd CD database file generated by OrangeCD 6.5
#
# Track frame offsets:
#	150
#	19847
#	39622
#	53432
#	74917
#	95020
#	114197
#	130520
#	147587
#	163775
#
# Disc length: 2424 seconds
#
# Revision: 13
# Processed by: cddbd v1.5.2PL0 Copyright (c) Steve Scherf et al.
# Submitted via: OrangeCD 6.5
#
DISCID=8b09760a
DTITLE=Alabama - Roll On
DYEAR=1984
DGENRE=Country
TTITLE0=Roll On (Eighteen Wheeler)
TTITLE1=Carolina Mountain Dewe
TTITLE2=The End Of The Lyin'
TTITLE3=I'm Not That Way Anymore
TTITLE4=If You're Gonna Play In Texas (You Gotta Have A Fiddle In The Band)
TTITLE5=(There's A) Fire In The Night
TTITLE6=When We Make Love
TTITLE7=Country Side Of Life
TTITLE8=The Boy
TTITLE9=Food On The Table
EXTD=
EXTT0=
EXTT1=
EXTT2=
EXTT3=
EXTT4=
EXTT5=
EXTT6=
EXTT7=
EXTT8=
EXTT9=
PLAYORDER=
